<svg width="74" height="75" viewBox="0 0 74 75" fill="none" xmlns="http://www.w3.org/2000/svg">
<path fill-rule="evenodd" clip-rule="evenodd" d="M37.0002 0.833252C16.7492 0.833252 0.333496 17.2489 0.333496 37.4999C0.333496 57.7509 16.7492 74.1666 37.0002 74.1666C57.2512 74.1666 73.6668 57.7509 73.6668 37.4999C73.6668 17.2489 57.2512 0.833252 37.0002 0.833252ZM24.1668 28.3333C24.1668 26.648 24.4988 24.9792 25.1437 23.4221C25.7886 21.8651 26.7339 20.4504 27.9256 19.2587C29.1173 18.067 30.532 17.1217 32.0891 16.4768C33.6461 15.8319 35.3149 15.4999 37.0002 15.4999C38.6855 15.4999 40.3543 15.8319 41.9113 16.4768C43.4683 17.1217 44.883 18.067 46.0747 19.2587C47.2664 20.4504 48.2117 21.8651 48.8566 23.4221C49.5016 24.9792 49.8335 26.648 49.8335 28.3333C49.8335 31.7369 48.4814 35.0011 46.0747 37.4078C43.668 39.8145 40.4038 41.1666 37.0002 41.1666C33.5966 41.1666 30.3323 39.8145 27.9256 37.4078C25.5189 35.0011 24.1668 31.7369 24.1668 28.3333ZM59.9462 55.7746C57.2005 59.2262 53.711 62.0134 49.7379 63.9282C45.7648 65.843 41.4106 66.836 37.0002 66.8333C32.5897 66.836 28.2355 65.843 24.2624 63.9282C20.2893 62.0134 16.7998 59.2262 14.0542 55.7746C19.9978 51.5102 28.1085 48.4999 37.0002 48.4999C45.8918 48.4999 54.0025 51.5102 59.9462 55.7746Z" fill="#ADBBC6"/>
</svg>
