<svg width="13" height="11" viewBox="0 0 13 11" fill="none" xmlns="http://www.w3.org/2000/svg">
<path d="M11.9528 0.0625238C12.2173 0.0625238 12.4413 0.15639 12.6248 0.344124C12.8082 0.531857 12.9 0.757991 12.9 1.02252V9.73932C12.9 10.0039 12.8082 10.2279 12.6248 10.4113C12.4413 10.5948 12.2173 10.6865 11.9528 10.6865H1.05998C0.795442 10.6865 0.569309 10.5948 0.381576 10.4113C0.193842 10.2279 0.0999756 10.0039 0.0999756 9.73932V1.02252C0.0999756 0.757991 0.193842 0.531857 0.381576 0.344124C0.569309 0.15639 0.795442 0.0625238 1.05998 0.0625238H11.9528ZM11.9528 0.881723H1.05998C1.02584 0.881723 0.993842 0.894524 0.963976 0.920124C0.934109 0.945724 0.919176 0.979857 0.919176 1.02252V9.73932C0.919176 9.77346 0.934109 9.80332 0.963976 9.82892C0.993842 9.85452 1.02584 9.86732 1.05998 9.86732H11.9528C11.9869 9.86732 12.0168 9.85452 12.0424 9.82892C12.068 9.80332 12.0808 9.77346 12.0808 9.73932V1.02252C12.0808 0.98839 12.068 0.95639 12.0424 0.926523C12.0168 0.896657 11.9869 0.881723 11.9528 0.881723ZM4.32398 3.33932C4.58851 3.33932 4.83171 3.40546 5.05358 3.53772C5.27544 3.66999 5.45464 3.85132 5.59118 4.08172C5.65091 4.17559 5.66584 4.27586 5.63598 4.38252C5.60611 4.48919 5.54638 4.57239 5.45678 4.63212C5.36718 4.69186 5.27118 4.71106 5.16878 4.68972C5.06638 4.66839 4.98104 4.61932 4.91278 4.54252L4.88718 4.49132C4.82744 4.38039 4.74638 4.29506 4.64398 4.23532C4.54158 4.17559 4.43491 4.14572 4.32398 4.14572C4.15331 4.14572 4.00184 4.21186 3.86958 4.34412C3.73731 4.47639 3.66264 4.64066 3.64558 4.83692V5.84812C3.64558 6.06146 3.71171 6.24066 3.84398 6.38572C3.97624 6.53079 4.13624 6.60332 4.32398 6.60332C4.43491 6.60332 4.54158 6.57346 4.64398 6.51372C4.74638 6.45399 4.82744 6.37292 4.88718 6.27052C4.94691 6.16812 5.03011 6.10199 5.13678 6.07212C5.24344 6.04226 5.34584 6.05719 5.44398 6.11692C5.54211 6.17666 5.60611 6.26199 5.63598 6.37292C5.66584 6.48386 5.65091 6.58626 5.59118 6.68012C5.45464 6.91052 5.27331 7.09186 5.04718 7.22412C4.82104 7.35639 4.57784 7.42252 4.31758 7.42252C4.05731 7.42252 3.81624 7.35639 3.59438 7.22412C3.37251 7.09186 3.19331 6.91266 3.05678 6.68652C2.92024 6.46039 2.84344 6.21079 2.82638 5.93772V4.91372C2.82638 4.63212 2.89251 4.36972 3.02478 4.12652C3.15704 3.88332 3.33838 3.69132 3.56878 3.55052C3.79918 3.40972 4.05091 3.33932 4.32398 3.33932ZM8.67598 3.33932C8.94051 3.33932 9.18371 3.40546 9.40558 3.53772C9.62744 3.66999 9.80664 3.85132 9.94318 4.08172C10.0029 4.17559 10.0178 4.27586 9.98798 4.38252C9.95811 4.48919 9.89838 4.57239 9.80877 4.63212C9.71918 4.69186 9.62318 4.71106 9.52078 4.68972C9.41838 4.66839 9.33731 4.61932 9.27758 4.54252L9.23918 4.49132C9.17091 4.38039 9.08771 4.29506 8.98958 4.23532C8.89144 4.17559 8.78691 4.14572 8.67598 4.14572C8.50531 4.14572 8.35384 4.21186 8.22158 4.34412C8.08931 4.47639 8.01464 4.64066 7.99758 4.83692V5.84812C7.99758 6.06146 8.06371 6.24066 8.19598 6.38572C8.32824 6.53079 8.48824 6.60332 8.67598 6.60332C8.78691 6.60332 8.89144 6.57346 8.98958 6.51372C9.08771 6.45399 9.16878 6.37292 9.23278 6.27052C9.29678 6.16812 9.38424 6.10199 9.49518 6.07212C9.60611 6.04226 9.70851 6.05719 9.80238 6.11692C9.89624 6.17666 9.95811 6.26199 9.98798 6.37292C10.0178 6.48386 10.0029 6.58626 9.94318 6.68012C9.80664 6.91052 9.62531 7.09186 9.39918 7.22412C9.17304 7.35639 8.92984 7.42252 8.66958 7.42252C8.40931 7.42252 8.16824 7.35639 7.94638 7.22412C7.72451 7.09186 7.54531 6.91266 7.40878 6.68652C7.27224 6.46039 7.19544 6.21079 7.17838 5.93772V4.91372C7.17838 4.63212 7.24451 4.36972 7.37678 4.12652C7.50904 3.88332 7.69038 3.69132 7.92078 3.55052C8.15118 3.40972 8.40291 3.33932 8.67598 3.33932Z" fill="#161616"/>
</svg>
