<svg width="13" height="13" viewBox="0 0 13 13" fill="none" xmlns="http://www.w3.org/2000/svg">
<path d="M11.9528 0.53751C12.2173 0.53751 12.4413 0.629243 12.6248 0.81271C12.8082 0.996177 12.9 1.22018 12.9 1.48471V11.8399C12.9 12.1044 12.8082 12.3284 12.6248 12.5119C12.4413 12.6954 12.2173 12.7871 11.9528 12.7871H1.05998C0.795442 12.7871 0.569309 12.6954 0.381576 12.5119C0.193842 12.3284 0.0999756 12.1044 0.0999756 11.8399V1.48471C0.0999756 1.22018 0.193842 0.996177 0.381576 0.81271C0.569309 0.629243 0.795442 0.53751 1.05998 0.53751H11.9528ZM11.9528 1.34391H1.05998C1.02584 1.34391 0.993842 1.35671 0.963976 1.38231C0.934109 1.40791 0.919176 1.44204 0.919176 1.48471V11.8399C0.919176 11.874 0.934109 11.9039 0.963976 11.9295C0.993842 11.9551 1.02584 11.9679 1.05998 11.9679H11.9528C11.9869 11.9679 12.0168 11.9551 12.0424 11.9295C12.068 11.9039 12.0808 11.874 12.0808 11.8399V1.48471C12.0808 1.45058 12.068 1.41858 12.0424 1.38871C12.0168 1.35884 11.9869 1.34391 11.9528 1.34391ZM3.23598 9.24151C3.34691 9.24151 3.44291 9.28204 3.52398 9.36311C3.60504 9.44418 3.64558 9.54018 3.64558 9.65111V10.2015C3.64558 10.3124 3.60504 10.4084 3.52398 10.4895C3.44291 10.5706 3.34691 10.6111 3.23598 10.6111H2.14798C2.03704 10.6111 1.94104 10.5706 1.85998 10.4895C1.77891 10.4084 1.73838 10.3124 1.73838 10.2015V9.65111C1.73838 9.54018 1.77891 9.44418 1.85998 9.36311C1.94104 9.28204 2.03704 9.24151 2.14798 9.24151H3.23598ZM10.852 9.24151C10.9629 9.24151 11.0589 9.28204 11.14 9.36311C11.221 9.44418 11.2616 9.54018 11.2616 9.65111V10.2015C11.2616 10.3124 11.2232 10.4084 11.1464 10.4895C11.0696 10.5706 10.9714 10.6111 10.852 10.6111H9.76398C9.65304 10.6111 9.55704 10.5706 9.47598 10.4895C9.39491 10.4084 9.35437 10.3124 9.35437 10.2015V9.65111C9.35437 9.54018 9.39491 9.44418 9.47598 9.36311C9.55704 9.28204 9.65304 9.24151 9.76398 9.24151H10.852ZM3.23598 7.06551C3.34691 7.06551 3.44291 7.10604 3.52398 7.18711C3.60504 7.26818 3.64558 7.36418 3.64558 7.47511V8.02551C3.64558 8.13644 3.60504 8.23244 3.52398 8.31351C3.44291 8.39458 3.34691 8.43511 3.23598 8.43511H2.14798C2.03704 8.43511 1.94104 8.39458 1.85998 8.31351C1.77891 8.23244 1.73838 8.13644 1.73838 8.02551V7.47511C1.73838 7.36418 1.77891 7.26818 1.85998 7.18711C1.94104 7.10604 2.03704 7.06551 2.14798 7.06551H3.23598ZM10.852 7.06551C10.9629 7.06551 11.0589 7.10604 11.14 7.18711C11.221 7.26818 11.2616 7.36418 11.2616 7.47511V8.02551C11.2616 8.13644 11.221 8.23244 11.14 8.31351C11.0589 8.39458 10.9629 8.43511 10.852 8.43511H9.76398C9.65304 8.43511 9.55704 8.39458 9.47598 8.31351C9.39491 8.23244 9.35437 8.13644 9.35437 8.02551V7.47511C9.35437 7.36418 9.39491 7.26818 9.47598 7.18711C9.55704 7.10604 9.65304 7.06551 9.76398 7.06551H10.852ZM3.23598 4.88951C3.34691 4.88951 3.44291 4.93004 3.52398 5.01111C3.60504 5.09218 3.64558 5.18818 3.64558 5.29911V5.84951C3.64558 5.96044 3.60504 6.05431 3.52398 6.13111C3.44291 6.20791 3.34691 6.24631 3.23598 6.24631H2.14798C2.03704 6.24631 1.94104 6.20791 1.85998 6.13111C1.77891 6.05431 1.73838 5.96044 1.73838 5.84951V5.29911C1.73838 5.17964 1.77891 5.08151 1.85998 5.00471C1.94104 4.92791 2.03704 4.88951 2.14798 4.88951H3.23598ZM10.852 4.88951C10.9714 4.88951 11.0696 4.92791 11.1464 5.00471C11.2232 5.08151 11.2616 5.17964 11.2616 5.29911V5.84951C11.2616 5.96044 11.221 6.05431 11.14 6.13111C11.0589 6.20791 10.9629 6.24631 10.852 6.24631H9.76398C9.65304 6.24631 9.55704 6.20791 9.47598 6.13111C9.39491 6.05431 9.35437 5.96044 9.35437 5.84951V5.29911C9.35437 5.18818 9.39491 5.09218 9.47598 5.01111C9.55704 4.93004 9.65304 4.88951 9.76398 4.88951H10.852ZM3.23598 2.71351C3.34691 2.71351 3.44291 2.75404 3.52398 2.83511C3.60504 2.91618 3.64558 3.01218 3.64558 3.12311V3.66071C3.64558 3.77164 3.60504 3.86764 3.52398 3.94871C3.44291 4.02978 3.34691 4.07031 3.23598 4.07031H2.14798C2.03704 4.07031 1.94104 4.02978 1.85998 3.94871C1.77891 3.86764 1.73838 3.77164 1.73838 3.66071V3.12311C1.73838 3.00364 1.77891 2.90551 1.85998 2.82871C1.94104 2.75191 2.03704 2.71351 2.14798 2.71351H3.23598ZM10.852 2.71351C10.9714 2.71351 11.0696 2.75191 11.1464 2.82871C11.2232 2.90551 11.2616 3.00364 11.2616 3.12311V3.66071C11.2616 3.77164 11.2232 3.86764 11.1464 3.94871C11.0696 4.02978 10.9714 4.07031 10.852 4.07031H9.76398C9.65304 4.07031 9.55704 4.02978 9.47598 3.94871C9.39491 3.86764 9.35437 3.77164 9.35437 3.66071V3.12311C9.35437 3.01218 9.39491 2.91618 9.47598 2.83511C9.55704 2.75404 9.65304 2.71351 9.76398 2.71351H10.852Z" fill="#161616"/>
</svg>
