<svg width="13" height="13" viewBox="0 0 13 13" fill="none" xmlns="http://www.w3.org/2000/svg">
<g clip-path="url(#clip0_307_2624)">
<path d="M7.54961 -0.00019455C7.66054 -0.00019455 7.75868 0.0382051 7.84401 0.115005L11.108 3.3918C11.1933 3.46861 11.236 3.5582 11.236 3.6606V11.8526C11.236 12.1001 11.1507 12.3155 10.98 12.499C10.8093 12.6825 10.6003 12.7827 10.3528 12.7998H2.66001C2.41255 12.7998 2.19495 12.7166 2.00721 12.5502C1.81948 12.3838 1.71708 12.1769 1.70001 11.9294V0.947005C1.70001 0.699538 1.78535 0.484072 1.95601 0.300605C2.12668 0.117138 2.33148 0.0168715 2.57041 -0.00019455H2.66001H7.54961ZM7.15281 0.819005H2.66001C2.62588 0.819005 2.59601 0.827538 2.57041 0.844605C2.54481 0.861671 2.52775 0.887272 2.51921 0.921405V11.8526C2.51921 11.9209 2.55335 11.9635 2.62161 11.9806H10.276C10.3443 11.9806 10.3912 11.9465 10.4168 11.8782V4.083H7.54961C7.44721 4.083 7.35975 4.04887 7.28721 3.98061C7.21468 3.91234 7.16988 3.83127 7.15281 3.7374V0.819005ZM7.95921 1.39501V3.26381H9.84081L7.95921 1.39501Z" fill="#161616"/>
</g>
<defs>
<clipPath id="clip0_307_2624">
<rect width="13" height="12.8" fill="white" transform="matrix(1 0 0 -1 0 12.7998)"/>
</clipPath>
</defs>
</svg>
