<svg width="13" height="13" viewBox="0 0 13 13" fill="none" xmlns="http://www.w3.org/2000/svg">
<g id="Icon">
<path id="Vector" d="M9.46957 3.83973C9.99864 3.69466 10.5106 3.69893 11.0056 3.85253L11.1336 3.89092C11.4834 4.01893 11.7906 4.20666 12.0552 4.45412C12.3197 4.70159 12.5245 4.99172 12.6696 5.32453C12.7122 5.41839 12.7677 5.56773 12.836 5.77253L12.8488 5.83652C12.8658 5.93893 12.8829 6.08399 12.9 6.27173C12.9256 6.81786 12.8018 7.31706 12.5288 7.76933C12.3837 8.01679 12.2024 8.23439 11.9848 8.42213C11.7672 8.60986 11.5261 8.75919 11.2616 8.87013C11.0312 8.95546 10.8221 9.01519 10.6344 9.04933C10.421 9.07493 10.2248 9.08346 10.0456 9.07493C9.60184 9.03226 9.1965 8.91706 8.82957 8.72932C8.54797 8.58426 8.27064 8.41359 7.99757 8.21733C7.65624 7.95279 7.3533 7.69679 7.08877 7.44933C7.00344 7.37253 6.85837 7.23173 6.65357 7.02693L6.49997 6.88613L6.34637 7.02693C6.14157 7.23173 5.9965 7.37253 5.91117 7.44933C5.57837 7.75653 5.27544 8.01039 5.00237 8.21093C4.7293 8.41146 4.45197 8.58426 4.17037 8.72932C3.80344 8.91706 3.3981 9.03226 2.95437 9.07493C2.77517 9.08346 2.5789 9.07493 2.36557 9.04933C2.17784 9.01519 1.96877 8.95546 1.73837 8.87013C1.47384 8.75919 1.23277 8.60986 1.01517 8.42213C0.797571 8.23439 0.616238 8.01679 0.471171 7.76933C0.198104 7.31706 0.0743711 6.81786 0.0999711 6.27173C0.117038 6.07546 0.138371 5.93039 0.163971 5.83652C0.206638 5.63173 0.262104 5.46106 0.330371 5.32453C0.475438 4.99172 0.682371 4.70159 0.951171 4.45412C1.21997 4.20666 1.52504 4.01893 1.86637 3.89092L1.99437 3.85253C2.49784 3.69893 3.00984 3.69466 3.53037 3.83973C3.9229 3.95066 4.30264 4.12559 4.66957 4.36453C4.94264 4.54373 5.22424 4.75706 5.51437 5.00453L5.71917 5.18373C5.8045 5.26052 5.97517 5.41839 6.23117 5.65733L6.49997 5.92613L6.76877 5.65733C7.02477 5.41839 7.19544 5.26052 7.28077 5.18373L7.48557 5.00453C7.78424 4.74853 8.0701 4.53519 8.34317 4.36453C8.69304 4.13413 9.0685 3.95919 9.46957 3.83973ZM2.33997 4.58213L2.22477 4.62052L2.12237 4.64613C1.88344 4.73999 1.67224 4.87226 1.48877 5.04292C1.3053 5.21359 1.16237 5.41413 1.05997 5.64453C1.00877 5.76399 0.970371 5.88773 0.944771 6.01573C0.919171 6.10106 0.906371 6.19919 0.906371 6.31013C0.880771 6.68559 0.966104 7.03546 1.16237 7.35972C1.3757 7.71812 1.6701 7.97413 2.04557 8.12773C2.16504 8.18746 2.31437 8.23013 2.49357 8.25573C2.58744 8.27279 2.7197 8.28133 2.89037 8.28133C3.21464 8.25573 3.52184 8.16612 3.81197 8.01253C4.1021 7.85892 4.33677 7.71386 4.51597 7.57732C4.7293 7.41519 5.01517 7.17626 5.37357 6.86053L5.55277 6.69413L5.84717 6.39972L5.74477 6.31013L5.18157 5.77253C4.89144 5.51653 4.5757 5.27333 4.23437 5.04292C3.96984 4.87226 3.66264 4.72719 3.31277 4.60773C2.97997 4.51386 2.6557 4.50533 2.33997 4.58213ZM10.66 4.58213C10.3442 4.50533 10.02 4.51386 9.68717 4.60773C9.3373 4.72719 9.0301 4.87226 8.76557 5.04292C8.42424 5.27333 8.1085 5.51653 7.81837 5.77253L7.61357 5.97732L7.15277 6.39972L7.38317 6.63013L7.62637 6.86053C7.98477 7.17626 8.27064 7.41519 8.48397 7.57732C8.66317 7.71386 8.89997 7.85892 9.19437 8.01253C9.48877 8.16612 9.79384 8.25573 10.1096 8.28133C10.2888 8.28133 10.421 8.27279 10.5064 8.25573C10.6856 8.23013 10.8349 8.18746 10.9544 8.12773C11.3298 7.97413 11.6242 7.71812 11.8376 7.35972C12.0338 7.03546 12.1192 6.68559 12.0936 6.31013C12.0936 6.19919 12.0808 6.10106 12.0552 6.01573C12.0296 5.88773 11.9912 5.76399 11.94 5.64453C11.829 5.39706 11.6712 5.18373 11.4664 5.00453C11.2616 4.82533 11.0312 4.69733 10.7752 4.62052L10.66 4.58213Z" fill="#161616"/>
</g>
</svg>
