<svg width="13" height="13" viewBox="0 0 13 13" fill="none" xmlns="http://www.w3.org/2000/svg">
<g clip-path="url(#clip0_307_2609)">
<path d="M7.15278 -0.000648499C7.36611 -0.000648499 7.58584 0.0398855 7.81198 0.120952C8.03811 0.202019 8.22798 0.306552 8.38158 0.434552L8.40718 0.460152C8.50958 0.554019 8.60558 0.692685 8.69518 0.876152C8.78478 1.05962 8.85944 1.26442 8.91918 1.49055C8.97891 1.71669 9.02157 1.94069 9.04718 2.16255C9.07277 2.38442 9.07277 2.55935 9.04718 2.68735L8.73997 4.21055H10.916C11.2061 4.21055 11.4792 4.25749 11.7352 4.35135C12.0168 4.44522 12.2386 4.59029 12.4008 4.78655C12.58 4.99989 12.6696 5.26015 12.6696 5.56735V5.79775C12.6696 6.00255 12.6354 6.18602 12.5672 6.34815C12.789 6.59562 12.9 6.88575 12.9 7.21855V8.29375C12.9 8.60095 12.789 8.87402 12.5672 9.11295C12.6269 9.29215 12.6568 9.51402 12.6568 9.77855V10.0474C12.6568 10.4058 12.5202 10.7044 12.2472 10.9434L12.0936 11.0458C12.1106 11.1226 12.1149 11.2378 12.1064 11.3914V11.5066C12.1064 12.0015 11.9229 12.3428 11.556 12.5306C11.3 12.6671 10.9032 12.7354 10.3656 12.7354H6.34638C5.99651 12.7354 5.67224 12.6842 5.37358 12.5818C5.04931 12.4708 4.76771 12.3044 4.52878 12.0826L4.57998 12.121H4.52878V12.2874C4.52878 12.3983 4.49251 12.4964 4.41998 12.5818C4.34744 12.6671 4.25571 12.7183 4.14478 12.7354H1.41838C0.966109 12.7354 0.629042 12.6074 0.407176 12.3514C0.202376 12.1039 0.0999756 11.7498 0.0999756 11.289V6.22015C0.0999756 5.75082 0.208776 5.39669 0.426376 5.15775C0.643976 4.91882 0.983176 4.79935 1.44398 4.79935L3.88878 4.81215L5.85998 2.30335L6.19278 0.639352C6.21838 0.511352 6.26958 0.404685 6.34638 0.319352C6.52558 0.106019 6.79438 -0.000648499 7.15278 -0.000648499ZM1.45678 5.60575H1.44398C1.28184 5.60575 1.16238 5.62495 1.08558 5.66335C1.00878 5.70175 0.957576 5.76789 0.931976 5.86175C0.914909 5.93002 0.906376 6.04949 0.906376 6.22015V11.289C0.906376 11.562 0.944776 11.737 1.02158 11.8138C1.08131 11.882 1.21358 11.9162 1.41838 11.9162H3.69678V5.61855L1.45678 5.60575ZM7.15278 0.818552C7.06744 0.818552 7.00771 0.827085 6.97358 0.844151L6.61518 2.64895L4.57998 5.23455V11.0202L5.06638 11.481C5.37358 11.754 5.77038 11.8991 6.25678 11.9162H10.3656C10.6642 11.9162 10.8797 11.9012 11.012 11.8714C11.1442 11.8415 11.2274 11.7924 11.2616 11.7242C11.2872 11.6815 11.3 11.609 11.3 11.5066V11.3274C11.3085 11.2591 11.3085 11.2122 11.3 11.1866L11.2104 10.6618L11.7608 10.2778C11.829 10.2266 11.8632 10.1498 11.8632 10.0474V9.77855C11.8632 9.65055 11.8504 9.53535 11.8248 9.43295L11.812 9.40735L11.62 8.92095L11.9912 8.53695C12.0594 8.46869 12.0936 8.38762 12.0936 8.29375V7.21855C12.0936 7.09055 12.0509 6.98388 11.9656 6.89855L11.6456 6.51455L11.8248 6.04095C11.8504 5.98975 11.8632 5.90869 11.8632 5.79775V5.56735C11.8632 5.34549 11.7096 5.18762 11.4024 5.09375C11.2488 5.05108 11.0866 5.02975 10.916 5.02975H7.75438L7.95918 4.04415L8.25358 2.53375C8.26211 2.47402 8.25784 2.37589 8.24078 2.23935C8.22371 2.06015 8.18958 1.88095 8.13838 1.70175C8.09571 1.54815 8.04878 1.40735 7.99758 1.27935C7.95491 1.18548 7.91651 1.11722 7.88238 1.07455H7.86958V1.06175C7.79278 1.00202 7.68611 0.946552 7.54958 0.895351C7.41304 0.844151 7.28078 0.818552 7.15278 0.818552Z" fill="#161616"/>
</g>
<defs>
<clipPath id="clip0_307_2609">
<rect width="13" height="12.8" fill="white" transform="matrix(1 0 0 -1 0 12.7998)"/>
</clipPath>
</defs>
</svg>
