<svg width="16" height="17" viewBox="0 0 16 17" fill="none" xmlns="http://www.w3.org/2000/svg">
<path d="M12.5332 7.10645C11.7799 7.10645 11.1065 7.47311 10.6865 8.03311C10.2665 7.47311 9.5932 7.10645 8.83987 7.10645C7.56654 7.10645 6.5332 8.14645 6.5332 9.42645C6.5332 9.91978 6.6132 10.3798 6.74654 10.7998C7.39987 12.8731 9.42654 14.1198 10.4265 14.4598C10.5665 14.5064 10.7999 14.5064 10.9399 14.4598C11.9399 14.1198 13.9665 12.8798 14.6199 10.7998C14.7599 10.3731 14.8332 9.91978 14.8332 9.42645C14.8399 8.14645 13.8065 7.10645 12.5332 7.10645Z" fill="#D92E06"/>
<path d="M13.833 6.05974C13.833 6.21307 13.6797 6.31307 13.533 6.27307C12.633 6.03974 11.6463 6.23307 10.8997 6.76641C10.753 6.87307 10.553 6.87307 10.413 6.76641C9.88634 6.37974 9.24634 6.16641 8.57301 6.16641C6.85301 6.16641 5.45301 7.57307 5.45301 9.30641C5.45301 11.1864 6.35301 12.5931 7.25968 13.5331C7.30634 13.5797 7.26634 13.6597 7.20634 13.6331C5.38634 13.0131 1.33301 10.4397 1.33301 6.05974C1.33301 4.12641 2.88634 2.56641 4.80634 2.56641C5.94634 2.56641 6.95301 3.11307 7.58634 3.95974C8.22634 3.11307 9.23301 2.56641 10.3663 2.56641C12.2797 2.56641 13.833 4.12641 13.833 6.05974Z" fill="#D92E06"/>
</svg>
