<svg width="13" height="13" viewBox="0 0 13 13" fill="none" xmlns="http://www.w3.org/2000/svg">
<g clip-path="url(#clip0_307_2632)">
<path d="M8.62479 -0.00019455C8.88932 -0.00019455 9.13679 0.0680714 9.36719 0.204605C9.59759 0.341138 9.78106 0.524605 9.91759 0.755005C10.0541 0.985405 10.1224 1.23287 10.1224 1.49741V11.3022C10.1224 11.5667 10.0541 11.8142 9.91759 12.0446C9.78106 12.275 9.59759 12.4585 9.36719 12.595C9.13679 12.7315 8.88932 12.7998 8.62479 12.7998H4.25999C3.99546 12.7998 3.74799 12.7315 3.51759 12.595C3.28719 12.4585 3.10372 12.275 2.96719 12.0446C2.83066 11.8142 2.76239 11.5667 2.76239 11.3022V1.49741C2.76239 1.23287 2.83066 0.985405 2.96719 0.755005C3.10372 0.524605 3.28719 0.341138 3.51759 0.204605C3.74799 0.0680714 3.99546 -0.00019455 4.25999 -0.00019455H8.62479ZM8.62479 0.819005H4.25999C4.07226 0.819005 3.91226 0.885139 3.77999 1.0174C3.64772 1.14967 3.58159 1.30967 3.58159 1.49741V11.3022C3.58159 11.4899 3.64772 11.6499 3.77999 11.7822C3.91226 11.9145 4.07226 11.9806 4.25999 11.9806H8.62479C8.81252 11.9806 8.97252 11.9145 9.10479 11.7822C9.23706 11.6499 9.30319 11.4899 9.30319 11.3022V1.49741C9.30319 1.30967 9.23706 1.14967 9.10479 1.0174C8.97252 0.885139 8.81252 0.819005 8.62479 0.819005ZM6.44879 10.2142C6.59386 10.2142 6.71972 10.2675 6.82639 10.3742C6.93306 10.4809 6.98639 10.6089 6.98639 10.7582C6.98639 10.9075 6.93306 11.0355 6.82639 11.1422C6.71972 11.2489 6.59172 11.3022 6.44239 11.3022C6.29306 11.3022 6.16506 11.2489 6.05839 11.1422C5.95172 11.0355 5.89839 10.9075 5.89839 10.7582C5.89839 10.6089 5.95172 10.4809 6.05839 10.3742C6.16506 10.2675 6.29519 10.2142 6.44879 10.2142ZM6.98639 1.6382C7.10586 1.6382 7.20399 1.67661 7.28079 1.7534C7.35759 1.8302 7.39599 1.92407 7.39599 2.035C7.39599 2.14594 7.36186 2.23767 7.29359 2.3102C7.22532 2.38274 7.14426 2.42754 7.05039 2.4446H5.89839C5.78746 2.4446 5.69146 2.40621 5.61039 2.3294C5.52932 2.2526 5.48879 2.15874 5.48879 2.0478C5.48879 1.93687 5.52292 1.84514 5.59119 1.7726C5.65946 1.70007 5.74479 1.65527 5.84719 1.6382H6.98639Z" fill="#161616"/>
</g>
<defs>
<clipPath id="clip0_307_2632">
<rect width="13" height="12.8" fill="white" transform="matrix(1 0 0 -1 0 12.7998)"/>
</clipPath>
</defs>
</svg>
