<svg width="11" height="13" viewBox="0 0 11 13" fill="none" xmlns="http://www.w3.org/2000/svg">
<path d="M5.47441 -0.00019455C6.14001 -0.00019455 6.75868 0.166205 7.33041 0.499005C7.88508 0.823272 8.32881 1.26274 8.66161 1.8174C8.99441 2.38914 9.16081 3.0078 9.16081 3.6734C9.16081 4.21101 9.04561 4.72301 8.81521 5.2094C8.60188 5.67874 8.29681 6.08834 7.90001 6.4382C7.50321 6.78807 7.05735 7.0398 6.56241 7.1934C7.35601 7.347 8.07281 7.65847 8.71281 8.1278C9.35281 8.59714 9.85628 9.16887 10.2232 9.843C10.5987 10.5342 10.7864 11.2638 10.7864 12.0318V12.3902C10.7864 12.5011 10.748 12.5971 10.6712 12.6782C10.5944 12.7593 10.4963 12.7998 10.3768 12.7998H0.572015C0.461081 12.7998 0.365081 12.7593 0.284015 12.6782C0.202948 12.5971 0.162415 12.5011 0.162415 12.3902V12.0318C0.162415 11.2638 0.350148 10.5342 0.725615 9.843C1.09255 9.16887 1.59601 8.59714 2.23601 8.1278C2.87601 7.65847 3.59281 7.347 4.38641 7.1934C3.89148 7.0398 3.44775 6.79021 3.05521 6.4446C2.66268 6.099 2.35548 5.68514 2.13361 5.203C1.91175 4.72087 1.80081 4.21101 1.80081 3.6734C1.80081 3.0078 1.96721 2.38914 2.30001 1.8174C2.62428 1.26274 3.06375 0.823272 3.61841 0.499005C4.19015 0.166205 4.80881 -0.00019455 5.47441 -0.00019455ZM5.47441 7.8974C4.67228 7.8974 3.92135 8.0894 3.22161 8.4734C2.53895 8.84887 1.99708 9.34807 1.59601 9.971C1.18641 10.6195 0.981615 11.3065 0.981615 12.0318V11.9806H9.96721V11.9038C9.94161 11.2041 9.73041 10.5513 9.33361 9.9454C8.93681 9.33954 8.41841 8.8574 7.77841 8.499C7.10428 8.12354 6.38321 7.923 5.61521 7.8974H5.47441ZM5.47441 0.819005C4.96241 0.819005 4.48668 0.947005 4.04721 1.203C3.60775 1.45901 3.26001 1.80674 3.00401 2.24621C2.74801 2.68567 2.62001 3.16354 2.62001 3.6798C2.62001 4.19607 2.74801 4.67394 3.00401 5.1134C3.26001 5.55287 3.60561 5.9006 4.04081 6.1566C4.47601 6.4126 4.95388 6.54061 5.47441 6.54061C5.99495 6.54061 6.47495 6.4126 6.91441 6.1566C7.35388 5.9006 7.70161 5.55287 7.95761 5.1134C8.21361 4.67394 8.34161 4.19394 8.34161 3.6734C8.34161 3.15287 8.21361 2.675 7.95761 2.23981C7.70161 1.8046 7.35388 1.45901 6.91441 1.203C6.47495 0.947005 5.99495 0.819005 5.47441 0.819005Z" fill="#161616"/>
</svg>
