<svg width="13" height="13" viewBox="0 0 13 13" fill="none" xmlns="http://www.w3.org/2000/svg">
<g clip-path="url(#clip0_307_2628)">
<path d="M6.49998 -0.00019455C7.37038 -0.00019455 8.20238 0.166205 8.99598 0.499005C9.75544 0.823272 10.4317 1.28194 11.0248 1.875C11.6178 2.46807 12.0765 3.14434 12.4008 3.9038C12.7336 4.6974 12.9 5.5294 12.9 6.39981C12.9 7.27021 12.7336 8.1022 12.4008 8.8958C12.0765 9.65527 11.6178 10.3315 11.0248 10.9246C10.4317 11.5177 9.75544 11.9763 8.99598 12.3006C8.20238 12.6334 7.37038 12.7998 6.49998 12.7998C5.62958 12.7998 4.79758 12.6334 4.00398 12.3006C3.24451 11.9763 2.56824 11.5177 1.97518 10.9246C1.38211 10.3315 0.923442 9.65527 0.599176 8.8958C0.266376 8.1022 0.0999756 7.27021 0.0999756 6.39981C0.0999756 5.5294 0.266376 4.6974 0.599176 3.9038C0.923442 3.14434 1.38211 2.46807 1.97518 1.875C2.56824 1.28194 3.24451 0.823272 4.00398 0.499005C4.79758 0.166205 5.62958 -0.00019455 6.49998 -0.00019455ZM6.49998 0.819005C5.48451 0.819005 4.54584 1.07074 3.68398 1.57421C2.83918 2.06914 2.16931 2.73901 1.67438 3.58381C1.17091 4.44567 0.919176 5.38434 0.919176 6.39981C0.919176 7.41527 1.17091 8.35394 1.67438 9.2158C2.16931 10.0606 2.83918 10.7305 3.68398 11.2254C4.54584 11.7289 5.48451 11.9806 6.49998 11.9806C7.51544 11.9806 8.45411 11.7289 9.31598 11.2254C10.1608 10.7305 10.8306 10.0606 11.3256 9.2158C11.829 8.35394 12.0808 7.41527 12.0808 6.39981C12.0808 5.38434 11.829 4.44567 11.3256 3.58381C10.8306 2.73901 10.1608 2.06914 9.31598 1.57421C8.45411 1.07074 7.51544 0.819005 6.49998 0.819005ZM9.94318 7.667C10.0456 7.70967 10.116 7.78434 10.1544 7.89101C10.1928 7.99767 10.1864 8.1022 10.1352 8.2046C9.78531 8.93847 9.28611 9.52514 8.63758 9.9646C7.98904 10.4041 7.27864 10.6238 6.50638 10.6238C5.73411 10.6238 5.02158 10.4041 4.36878 9.9646C3.71598 9.52514 3.21464 8.93847 2.86478 8.2046C2.81358 8.1022 2.80718 7.99767 2.84558 7.89101C2.88398 7.78434 2.95438 7.70754 3.05678 7.6606C3.15918 7.61367 3.26371 7.60941 3.37038 7.6478C3.47704 7.6862 3.55598 7.7566 3.60718 7.859C3.88878 8.4478 4.28984 8.91927 4.81038 9.2734C5.33091 9.62754 5.89624 9.8046 6.50638 9.8046C7.11651 9.8046 7.68184 9.62967 8.20238 9.2798C8.72291 8.92994 9.11971 8.45634 9.39278 7.859C9.44398 7.7566 9.52291 7.6862 9.62958 7.6478C9.73624 7.60941 9.84078 7.6158 9.94318 7.667ZM8.67598 4.2238C8.97464 4.2238 9.23064 4.33047 9.44398 4.54381C9.65731 4.75714 9.76398 5.01314 9.76398 5.3118C9.76398 5.61047 9.65731 5.86647 9.44398 6.0798C9.23064 6.29314 8.97464 6.39981 8.67598 6.39981C8.37731 6.39981 8.12131 6.29314 7.90798 6.0798C7.69464 5.86647 7.58798 5.61047 7.58798 5.3118C7.58798 5.01314 7.69464 4.75714 7.90798 4.54381C8.12131 4.33047 8.37731 4.2238 8.67598 4.2238ZM4.32398 4.2238C4.62264 4.2238 4.87864 4.33047 5.09198 4.54381C5.30531 4.75714 5.41198 5.01314 5.41198 5.3118C5.41198 5.61047 5.30531 5.86647 5.09198 6.0798C4.87864 6.29314 4.62264 6.39981 4.32398 6.39981C4.02531 6.39981 3.76931 6.29314 3.55598 6.0798C3.34264 5.86647 3.23598 5.61047 3.23598 5.3118C3.23598 5.01314 3.34264 4.75714 3.55598 4.54381C3.76931 4.33047 4.02531 4.2238 4.32398 4.2238Z" fill="#161616"/>
</g>
<defs>
<clipPath id="clip0_307_2628">
<rect width="13" height="12.8" fill="white" transform="matrix(1 0 0 -1 0 12.7998)"/>
</clipPath>
</defs>
</svg>
