<svg width="25" height="24" viewBox="0 0 25 24" fill="none" xmlns="http://www.w3.org/2000/svg">
<g id="Linear / Video, Audio, Sound / Video Library">
<path id="Vector" d="M19.7563 7C19.985 5.69523 18.9809 4.5 17.6563 4.5H6.73246C5.40781 4.5 4.4038 5.69523 4.63242 7" stroke="#545353" stroke-width="1.5"/>
<path id="Vector_2" d="M17.6945 4.5C17.7229 4.24092 17.7371 4.11135 17.7373 4.00435C17.7396 2.98072 16.9685 2.12064 15.9507 2.01142C15.8443 2 15.714 2 15.4534 2H8.93557C8.67493 2 8.5446 2 8.4382 2.01142C7.42042 2.12064 6.64939 2.98072 6.65162 4.00434C6.65185 4.11135 6.66604 4.2409 6.69441 4.5" stroke="#545353" stroke-width="1.5"/>
<path id="Vector_3" d="M14.7758 13.6159C15.3342 13.9621 15.3342 14.8582 14.7758 15.2044L11.4042 17.2945C10.8615 17.6309 10.1946 17.1931 10.1946 16.5003V12.32C10.1946 11.6273 10.8615 11.1894 11.4042 11.5258L14.7758 13.6159Z" stroke="#545353" stroke-width="1.5"/>
<path id="Vector_4" d="M2.57809 13.793C2.13206 10.6294 1.90905 9.04765 2.8569 8.02383C3.80475 7 5.49216 7 8.86697 7H15.5222C18.897 7 20.5844 7 21.5323 8.02383C22.4801 9.04765 22.2571 10.6294 21.8111 13.793L21.3881 16.793C21.0383 19.2739 20.8635 20.5143 19.9663 21.2572C19.0691 22 17.7458 22 15.0992 22H9.28994C6.64339 22 5.32011 22 4.42292 21.2572C3.52573 20.5143 3.35084 19.2739 3.00106 16.793L2.57809 13.793Z" stroke="#545353" stroke-width="1.5"/>
</g>
</svg>
