<svg width="13" height="13" viewBox="0 0 13 13" fill="none" xmlns="http://www.w3.org/2000/svg">
<path d="M7.45998 0.882689L7.47278 0.94669V11.8523C7.47278 11.9632 7.43864 12.055 7.37038 12.1275C7.30211 12.2 7.21678 12.2448 7.11438 12.2619C7.01198 12.279 6.91811 12.2576 6.83278 12.1979L6.79438 12.1723L3.08238 8.98509H1.05998C0.812509 8.98509 0.594909 8.90189 0.407176 8.73549C0.219442 8.56909 0.117042 8.36216 0.0999756 8.11469V4.76109C0.0999756 4.51362 0.185309 4.29816 0.355976 4.11469C0.526642 3.93122 0.735709 3.83096 0.983176 3.81389L1.05998 3.80109H3.08238L6.79438 0.626689C6.87118 0.558423 6.96078 0.526423 7.06318 0.530689C7.16558 0.534956 7.25518 0.569089 7.33198 0.633089C7.40878 0.697089 7.45144 0.78029 7.45998 0.882689ZM6.65358 1.82989L3.50478 4.53069C3.48771 4.54776 3.47064 4.55629 3.45358 4.55629L3.50478 4.53069L3.45358 4.56909L3.41518 4.58189L3.40238 4.59469C3.35118 4.61176 3.31704 4.62029 3.29998 4.62029H1.05998C1.02584 4.62029 0.995976 4.63096 0.970376 4.65229C0.944776 4.67362 0.927709 4.70136 0.919176 4.73549V8.03789C0.919176 8.07202 0.929842 8.09976 0.951176 8.12109C0.972509 8.14242 0.995976 8.15736 1.02158 8.16589L1.05998 8.17869H3.23598C3.31278 8.17869 3.36824 8.18722 3.40238 8.20429L3.45358 8.22989L6.65358 10.9691V1.82989ZM9.89198 2.18829C10.4808 2.37602 11.0034 2.67896 11.46 3.09709C11.9165 3.51522 12.2706 4.01016 12.5224 4.58189C12.7741 5.15362 12.9 5.75949 12.9 6.39949C12.9 7.03949 12.7741 7.64536 12.5224 8.21709C12.2706 8.78882 11.9165 9.28376 11.46 9.70189C11.0034 10.12 10.485 10.423 9.90478 10.6107C9.79384 10.6448 9.68718 10.6363 9.58477 10.5851C9.48238 10.5339 9.41411 10.4528 9.37998 10.3419C9.34584 10.231 9.35437 10.1264 9.40558 10.0283C9.45678 9.93016 9.53784 9.86402 9.64878 9.82989C10.1266 9.67629 10.549 9.42882 10.916 9.08749C11.2829 8.74616 11.5688 8.34296 11.7736 7.87789C11.9784 7.41282 12.0808 6.92002 12.0808 6.39949C12.0808 5.87896 11.9784 5.38402 11.7736 4.91469C11.5688 4.44536 11.2808 4.04216 10.9096 3.70509C10.5384 3.36802 10.1138 3.12269 9.63597 2.96909C9.52504 2.93496 9.44398 2.86669 9.39278 2.76429C9.34158 2.66189 9.33304 2.55736 9.36718 2.45069C9.40131 2.34402 9.46957 2.26509 9.57198 2.21389C9.67438 2.16269 9.78104 2.15416 9.89198 2.18829ZM8.70158 4.35149C9.06851 4.35149 9.40984 4.44322 9.72558 4.62669C10.0413 4.81016 10.2909 5.05976 10.4744 5.37549C10.6578 5.69122 10.7496 6.03256 10.7496 6.39949C10.7496 6.76642 10.6578 7.10776 10.4744 7.42349C10.2909 7.73922 10.0413 7.98882 9.72558 8.17229C9.40984 8.35576 9.06851 8.44749 8.70158 8.44749C8.59064 8.44749 8.49464 8.40696 8.41358 8.32589C8.33251 8.24482 8.29198 8.15096 8.29198 8.04429C8.29198 7.93762 8.32611 7.84589 8.39438 7.76909C8.46264 7.69229 8.54371 7.64536 8.63758 7.62829H8.70158C8.92344 7.62829 9.12824 7.57282 9.31598 7.46189C9.50371 7.35096 9.65304 7.20162 9.76398 7.01389C9.87491 6.82616 9.93038 6.62136 9.93038 6.39949C9.93038 6.17762 9.87491 5.97282 9.76398 5.78509C9.65304 5.59736 9.50371 5.44802 9.31598 5.33709C9.12824 5.22616 8.92344 5.17069 8.70158 5.17069C8.59064 5.17069 8.49464 5.13016 8.41358 5.04909C8.33251 4.96802 8.29198 4.86989 8.29198 4.75469C8.29198 4.63949 8.33251 4.54349 8.41358 4.46669C8.49464 4.38989 8.59064 4.35149 8.70158 4.35149Z" fill="#161616"/>
</svg>
