<svg width="600" height="423" viewBox="0 0 600 423" fill="none" xmlns="http://www.w3.org/2000/svg">
<g clip-path="url(#clip0_8_493)">
<path d="M87.9999 308.182C87.9999 306.425 89.4245 305 91.1817 305C92.939 305 94.3635 306.425 94.3635 308.182C94.3635 309.939 92.939 311.364 91.1817 311.364C89.4245 311.364 87.9999 309.939 87.9999 308.182Z" stroke="#33519E" stroke-width="0.715909" stroke-linecap="round" stroke-linejoin="round"/>
</g>
<g clip-path="url(#clip1_8_493)">
<path d="M87.9999 292.909C87.9999 291.152 89.4245 289.727 91.1817 289.727C92.939 289.727 94.3635 291.152 94.3635 292.909C94.3635 294.666 92.939 296.091 91.1817 296.091C89.4245 296.091 87.9999 294.666 87.9999 292.909Z" stroke="#33519E" stroke-width="0.715909" stroke-linecap="round" stroke-linejoin="round"/>
</g>
<g clip-path="url(#clip2_8_493)">
<path d="M87.9999 277.636C87.9999 275.879 89.4245 274.454 91.1817 274.454C92.939 274.454 94.3635 275.879 94.3635 277.636C94.3635 279.394 92.939 280.818 91.1817 280.818C89.4245 280.818 87.9999 279.394 87.9999 277.636Z" stroke="#33519E" stroke-width="0.715909" stroke-linecap="round" stroke-linejoin="round"/>
</g>
<g clip-path="url(#clip3_8_493)">
<path d="M87.9999 262.364C87.9999 260.606 89.4245 259.182 91.1817 259.182C92.939 259.182 94.3635 260.606 94.3635 262.364C94.3635 264.121 92.939 265.545 91.1817 265.545C89.4245 265.545 87.9999 264.121 87.9999 262.364Z" stroke="#33519E" stroke-width="0.715909" stroke-linecap="round" stroke-linejoin="round"/>
</g>
<g clip-path="url(#clip4_8_493)">
<path d="M87.9999 247.091C87.9999 245.334 89.4245 243.909 91.1817 243.909C92.939 243.909 94.3635 245.334 94.3635 247.091C94.3635 248.848 92.939 250.273 91.1817 250.273C89.4245 250.273 87.9999 248.848 87.9999 247.091Z" stroke="#33519E" stroke-width="0.715909" stroke-linecap="round" stroke-linejoin="round"/>
</g>
<g clip-path="url(#clip5_8_493)">
<path d="M87.9999 231.818C87.9999 230.061 89.4245 228.636 91.1817 228.636C92.939 228.636 94.3635 230.061 94.3635 231.818C94.3635 233.575 92.939 235 91.1817 235C89.4245 235 87.9999 233.575 87.9999 231.818Z" stroke="#33519E" stroke-width="0.715909" stroke-linecap="round" stroke-linejoin="round"/>
</g>
<g clip-path="url(#clip6_8_493)">
<path d="M72.7272 308.182C72.7272 306.425 74.1517 305 75.909 305C77.6663 305 79.0908 306.425 79.0908 308.182C79.0908 309.939 77.6663 311.364 75.909 311.364C74.1517 311.364 72.7272 309.939 72.7272 308.182Z" stroke="#33519E" stroke-width="0.715909" stroke-linecap="round" stroke-linejoin="round"/>
</g>
<g clip-path="url(#clip7_8_493)">
<path d="M72.7272 292.909C72.7272 291.152 74.1517 289.727 75.909 289.727C77.6663 289.727 79.0908 291.152 79.0908 292.909C79.0908 294.666 77.6663 296.091 75.909 296.091C74.1517 296.091 72.7272 294.666 72.7272 292.909Z" stroke="#33519E" stroke-width="0.715909" stroke-linecap="round" stroke-linejoin="round"/>
</g>
<g clip-path="url(#clip8_8_493)">
<path d="M72.7272 277.636C72.7272 275.879 74.1517 274.454 75.909 274.454C77.6663 274.454 79.0908 275.879 79.0908 277.636C79.0908 279.394 77.6663 280.818 75.909 280.818C74.1517 280.818 72.7272 279.394 72.7272 277.636Z" stroke="#33519E" stroke-width="0.715909" stroke-linecap="round" stroke-linejoin="round"/>
</g>
<g clip-path="url(#clip9_8_493)">
<path d="M72.7272 262.364C72.7272 260.606 74.1517 259.182 75.909 259.182C77.6663 259.182 79.0908 260.606 79.0908 262.364C79.0908 264.121 77.6663 265.545 75.909 265.545C74.1517 265.545 72.7272 264.121 72.7272 262.364Z" stroke="#33519E" stroke-width="0.715909" stroke-linecap="round" stroke-linejoin="round"/>
</g>
<g clip-path="url(#clip10_8_493)">
<path d="M72.7272 247.091C72.7272 245.334 74.1517 243.909 75.909 243.909C77.6663 243.909 79.0908 245.334 79.0908 247.091C79.0908 248.848 77.6663 250.273 75.909 250.273C74.1517 250.273 72.7272 248.848 72.7272 247.091Z" stroke="#33519E" stroke-width="0.715909" stroke-linecap="round" stroke-linejoin="round"/>
</g>
<g clip-path="url(#clip11_8_493)">
<path d="M72.7272 231.818C72.7272 230.061 74.1517 228.636 75.909 228.636C77.6663 228.636 79.0908 230.061 79.0908 231.818C79.0908 233.575 77.6663 235 75.909 235C74.1517 235 72.7272 233.575 72.7272 231.818Z" stroke="#33519E" stroke-width="0.715909" stroke-linecap="round" stroke-linejoin="round"/>
</g>
<g clip-path="url(#clip12_8_493)">
<path d="M57.4545 308.182C57.4545 306.425 58.879 305 60.6363 305C62.3936 305 63.8181 306.425 63.8181 308.182C63.8181 309.939 62.3936 311.364 60.6363 311.364C58.879 311.364 57.4545 309.939 57.4545 308.182Z" stroke="#33519E" stroke-width="0.715909" stroke-linecap="round" stroke-linejoin="round"/>
</g>
<g clip-path="url(#clip13_8_493)">
<path d="M57.4545 292.909C57.4545 291.152 58.879 289.727 60.6363 289.727C62.3936 289.727 63.8181 291.152 63.8181 292.909C63.8181 294.666 62.3936 296.091 60.6363 296.091C58.879 296.091 57.4545 294.666 57.4545 292.909Z" stroke="#33519E" stroke-width="0.715909" stroke-linecap="round" stroke-linejoin="round"/>
</g>
<g clip-path="url(#clip14_8_493)">
<path d="M57.4545 277.636C57.4545 275.879 58.879 274.454 60.6363 274.454C62.3936 274.454 63.8181 275.879 63.8181 277.636C63.8181 279.394 62.3936 280.818 60.6363 280.818C58.879 280.818 57.4545 279.394 57.4545 277.636Z" stroke="#33519E" stroke-width="0.715909" stroke-linecap="round" stroke-linejoin="round"/>
</g>
<g clip-path="url(#clip15_8_493)">
<path d="M57.4545 262.364C57.4545 260.606 58.879 259.182 60.6363 259.182C62.3936 259.182 63.8181 260.606 63.8181 262.364C63.8181 264.121 62.3936 265.545 60.6363 265.545C58.879 265.545 57.4545 264.121 57.4545 262.364Z" stroke="#33519E" stroke-width="0.715909" stroke-linecap="round" stroke-linejoin="round"/>
</g>
<g clip-path="url(#clip16_8_493)">
<path d="M57.4545 247.091C57.4545 245.334 58.879 243.909 60.6363 243.909C62.3936 243.909 63.8181 245.334 63.8181 247.091C63.8181 248.848 62.3936 250.273 60.6363 250.273C58.879 250.273 57.4545 248.848 57.4545 247.091Z" stroke="#33519E" stroke-width="0.715909" stroke-linecap="round" stroke-linejoin="round"/>
</g>
<g clip-path="url(#clip17_8_493)">
<path d="M57.4545 231.818C57.4545 230.061 58.879 228.636 60.6363 228.636C62.3936 228.636 63.8181 230.061 63.8181 231.818C63.8181 233.575 62.3936 235 60.6363 235C58.879 235 57.4545 233.575 57.4545 231.818Z" stroke="#33519E" stroke-width="0.715909" stroke-linecap="round" stroke-linejoin="round"/>
</g>
<g clip-path="url(#clip18_8_493)">
<path d="M42.1818 308.182C42.1818 306.425 43.6063 305 45.3636 305C47.1209 305 48.5454 306.425 48.5454 308.182C48.5454 309.939 47.1209 311.364 45.3636 311.364C43.6063 311.364 42.1818 309.939 42.1818 308.182Z" stroke="#33519E" stroke-width="0.715909" stroke-linecap="round" stroke-linejoin="round"/>
</g>
<g clip-path="url(#clip19_8_493)">
<path d="M42.1818 292.909C42.1818 291.152 43.6063 289.727 45.3636 289.727C47.1209 289.727 48.5454 291.152 48.5454 292.909C48.5454 294.666 47.1209 296.091 45.3636 296.091C43.6063 296.091 42.1818 294.666 42.1818 292.909Z" stroke="#33519E" stroke-width="0.715909" stroke-linecap="round" stroke-linejoin="round"/>
</g>
<g clip-path="url(#clip20_8_493)">
<path d="M42.1818 277.636C42.1818 275.879 43.6063 274.454 45.3636 274.454C47.1209 274.454 48.5454 275.879 48.5454 277.636C48.5454 279.394 47.1209 280.818 45.3636 280.818C43.6063 280.818 42.1818 279.394 42.1818 277.636Z" stroke="#33519E" stroke-width="0.715909" stroke-linecap="round" stroke-linejoin="round"/>
</g>
<g clip-path="url(#clip21_8_493)">
<path d="M42.1818 262.364C42.1818 260.606 43.6063 259.182 45.3636 259.182C47.1209 259.182 48.5454 260.606 48.5454 262.364C48.5454 264.121 47.1209 265.545 45.3636 265.545C43.6063 265.545 42.1818 264.121 42.1818 262.364Z" stroke="#33519E" stroke-width="0.715909" stroke-linecap="round" stroke-linejoin="round"/>
</g>
<g clip-path="url(#clip22_8_493)">
<path d="M42.1818 247.091C42.1818 245.334 43.6063 243.909 45.3636 243.909C47.1209 243.909 48.5454 245.334 48.5454 247.091C48.5454 248.848 47.1209 250.273 45.3636 250.273C43.6063 250.273 42.1818 248.848 42.1818 247.091Z" stroke="#33519E" stroke-width="0.715909" stroke-linecap="round" stroke-linejoin="round"/>
</g>
<g clip-path="url(#clip23_8_493)">
<path d="M42.1818 231.818C42.1818 230.061 43.6063 228.636 45.3636 228.636C47.1209 228.636 48.5454 230.061 48.5454 231.818C48.5454 233.575 47.1209 235 45.3636 235C43.6063 235 42.1818 233.575 42.1818 231.818Z" stroke="#33519E" stroke-width="0.715909" stroke-linecap="round" stroke-linejoin="round"/>
</g>
<g clip-path="url(#clip24_8_493)">
<path d="M26.9091 308.182C26.9091 306.425 28.3336 305 30.0909 305C31.8482 305 33.2727 306.425 33.2727 308.182C33.2727 309.939 31.8482 311.364 30.0909 311.364C28.3336 311.364 26.9091 309.939 26.9091 308.182Z" stroke="#33519E" stroke-width="0.715909" stroke-linecap="round" stroke-linejoin="round"/>
</g>
<g clip-path="url(#clip25_8_493)">
<path d="M26.9091 292.909C26.9091 291.152 28.3336 289.727 30.0909 289.727C31.8482 289.727 33.2727 291.152 33.2727 292.909C33.2727 294.666 31.8482 296.091 30.0909 296.091C28.3336 296.091 26.9091 294.666 26.9091 292.909Z" stroke="#33519E" stroke-width="0.715909" stroke-linecap="round" stroke-linejoin="round"/>
</g>
<g clip-path="url(#clip26_8_493)">
<path d="M26.9091 277.636C26.9091 275.879 28.3336 274.454 30.0909 274.454C31.8482 274.454 33.2727 275.879 33.2727 277.636C33.2727 279.394 31.8482 280.818 30.0909 280.818C28.3336 280.818 26.9091 279.394 26.9091 277.636Z" stroke="#33519E" stroke-width="0.715909" stroke-linecap="round" stroke-linejoin="round"/>
</g>
<g clip-path="url(#clip27_8_493)">
<path d="M26.9091 262.364C26.9091 260.606 28.3336 259.182 30.0909 259.182C31.8482 259.182 33.2727 260.606 33.2727 262.364C33.2727 264.121 31.8482 265.545 30.0909 265.545C28.3336 265.545 26.9091 264.121 26.9091 262.364Z" stroke="#33519E" stroke-width="0.715909" stroke-linecap="round" stroke-linejoin="round"/>
</g>
<g clip-path="url(#clip28_8_493)">
<path d="M26.9091 247.091C26.9091 245.334 28.3336 243.909 30.0909 243.909C31.8482 243.909 33.2727 245.334 33.2727 247.091C33.2727 248.848 31.8482 250.273 30.0909 250.273C28.3336 250.273 26.9091 248.848 26.9091 247.091Z" stroke="#33519E" stroke-width="0.715909" stroke-linecap="round" stroke-linejoin="round"/>
</g>
<g clip-path="url(#clip29_8_493)">
<path d="M26.9091 231.818C26.9091 230.061 28.3336 228.636 30.0909 228.636C31.8482 228.636 33.2727 230.061 33.2727 231.818C33.2727 233.575 31.8482 235 30.0909 235C28.3336 235 26.9091 233.575 26.9091 231.818Z" stroke="#33519E" stroke-width="0.715909" stroke-linecap="round" stroke-linejoin="round"/>
</g>
<g clip-path="url(#clip30_8_493)">
<path d="M11.6364 308.182C11.6364 306.425 13.0609 305 14.8182 305C16.5755 305 18 306.425 18 308.182C18 309.939 16.5755 311.364 14.8182 311.364C13.0609 311.364 11.6364 309.939 11.6364 308.182Z" stroke="#33519E" stroke-width="0.715909" stroke-linecap="round" stroke-linejoin="round"/>
</g>
<g clip-path="url(#clip31_8_493)">
<path d="M11.6364 292.909C11.6364 291.152 13.0609 289.727 14.8182 289.727C16.5755 289.727 18 291.152 18 292.909C18 294.666 16.5755 296.091 14.8182 296.091C13.0609 296.091 11.6364 294.666 11.6364 292.909Z" stroke="#33519E" stroke-width="0.715909" stroke-linecap="round" stroke-linejoin="round"/>
</g>
<g clip-path="url(#clip32_8_493)">
<path d="M11.6364 277.636C11.6364 275.879 13.0609 274.454 14.8182 274.454C16.5755 274.454 18 275.879 18 277.636C18 279.394 16.5755 280.818 14.8182 280.818C13.0609 280.818 11.6364 279.394 11.6364 277.636Z" stroke="#33519E" stroke-width="0.715909" stroke-linecap="round" stroke-linejoin="round"/>
</g>
<g clip-path="url(#clip33_8_493)">
<path d="M11.6364 262.364C11.6364 260.606 13.0609 259.182 14.8182 259.182C16.5755 259.182 18 260.606 18 262.364C18 264.121 16.5755 265.545 14.8182 265.545C13.0609 265.545 11.6364 264.121 11.6364 262.364Z" stroke="#33519E" stroke-width="0.715909" stroke-linecap="round" stroke-linejoin="round"/>
</g>
<g clip-path="url(#clip34_8_493)">
<path d="M11.6364 247.091C11.6364 245.334 13.0609 243.909 14.8182 243.909C16.5755 243.909 18 245.334 18 247.091C18 248.848 16.5755 250.273 14.8182 250.273C13.0609 250.273 11.6364 248.848 11.6364 247.091Z" stroke="#33519E" stroke-width="0.715909" stroke-linecap="round" stroke-linejoin="round"/>
</g>
<g clip-path="url(#clip35_8_493)">
<path d="M11.6364 231.818C11.6364 230.061 13.0609 228.636 14.8182 228.636C16.5755 228.636 18 230.061 18 231.818C18 233.575 16.5755 235 14.8182 235C13.0609 235 11.6364 233.575 11.6364 231.818Z" stroke="#33519E" stroke-width="0.715909" stroke-linecap="round" stroke-linejoin="round"/>
</g>
<path d="M392.975 105.097C386.167 65.3967 382.762 45.5465 368.798 33.7732C354.834 22 334.694 22 294.414 22H224C176.86 22 153.289 22 138.645 36.6447C124 51.2893 124 74.8595 124 122V277.947C124 332.747 124 360.147 141.682 375.125C159.365 390.104 186.392 385.598 240.446 376.585L334.903 360.837C381.599 353.051 404.947 349.159 416.984 332.222C429.021 315.285 425.021 291.955 417.019 245.296L392.975 105.097Z" fill="#902C86"/>
<rect x="35.5" y="125.5" width="222" height="296" rx="8.5" fill="#E4E4E4"/>
<rect x="35.5" y="125.5" width="222" height="296" rx="8.5" stroke="#0F172A" stroke-width="3"/>
<rect x="275.5" y="1.5" width="308" height="331" rx="8.5" fill="#DADADA"/>
<rect x="275.5" y="1.5" width="308" height="331" rx="8.5" stroke="#0F172A" stroke-width="3"/>
<defs>
<clipPath id="clip0_8_493">
<rect width="7.63636" height="7.63636" fill="white" transform="matrix(-4.37114e-08 -1 -1 4.37114e-08 95 312)"/>
</clipPath>
<clipPath id="clip1_8_493">
<rect width="7.63636" height="7.63636" fill="white" transform="matrix(-4.37114e-08 -1 -1 4.37114e-08 95 296.727)"/>
</clipPath>
<clipPath id="clip2_8_493">
<rect width="7.63636" height="7.63636" fill="white" transform="matrix(-4.37114e-08 -1 -1 4.37114e-08 95 281.455)"/>
</clipPath>
<clipPath id="clip3_8_493">
<rect width="7.63636" height="7.63636" fill="white" transform="matrix(-4.37114e-08 -1 -1 4.37114e-08 95 266.182)"/>
</clipPath>
<clipPath id="clip4_8_493">
<rect width="7.63636" height="7.63636" fill="white" transform="matrix(-4.37114e-08 -1 -1 4.37114e-08 95 250.909)"/>
</clipPath>
<clipPath id="clip5_8_493">
<rect width="7.63636" height="7.63636" fill="white" transform="matrix(-4.37114e-08 -1 -1 4.37114e-08 95 235.636)"/>
</clipPath>
<clipPath id="clip6_8_493">
<rect width="7.63636" height="7.63636" fill="white" transform="matrix(-4.37114e-08 -1 -1 4.37114e-08 79.7273 312)"/>
</clipPath>
<clipPath id="clip7_8_493">
<rect width="7.63636" height="7.63636" fill="white" transform="matrix(-4.37114e-08 -1 -1 4.37114e-08 79.7273 296.727)"/>
</clipPath>
<clipPath id="clip8_8_493">
<rect width="7.63636" height="7.63636" fill="white" transform="matrix(-4.37114e-08 -1 -1 4.37114e-08 79.7273 281.455)"/>
</clipPath>
<clipPath id="clip9_8_493">
<rect width="7.63636" height="7.63636" fill="white" transform="matrix(-4.37114e-08 -1 -1 4.37114e-08 79.7273 266.182)"/>
</clipPath>
<clipPath id="clip10_8_493">
<rect width="7.63636" height="7.63636" fill="white" transform="matrix(-4.37114e-08 -1 -1 4.37114e-08 79.7273 250.909)"/>
</clipPath>
<clipPath id="clip11_8_493">
<rect width="7.63636" height="7.63636" fill="white" transform="matrix(-4.37114e-08 -1 -1 4.37114e-08 79.7273 235.636)"/>
</clipPath>
<clipPath id="clip12_8_493">
<rect width="7.63636" height="7.63636" fill="white" transform="matrix(-4.37114e-08 -1 -1 4.37114e-08 64.4546 312)"/>
</clipPath>
<clipPath id="clip13_8_493">
<rect width="7.63636" height="7.63636" fill="white" transform="matrix(-4.37114e-08 -1 -1 4.37114e-08 64.4546 296.727)"/>
</clipPath>
<clipPath id="clip14_8_493">
<rect width="7.63636" height="7.63636" fill="white" transform="matrix(-4.37114e-08 -1 -1 4.37114e-08 64.4546 281.455)"/>
</clipPath>
<clipPath id="clip15_8_493">
<rect width="7.63636" height="7.63636" fill="white" transform="matrix(-4.37114e-08 -1 -1 4.37114e-08 64.4546 266.182)"/>
</clipPath>
<clipPath id="clip16_8_493">
<rect width="7.63636" height="7.63636" fill="white" transform="matrix(-4.37114e-08 -1 -1 4.37114e-08 64.4546 250.909)"/>
</clipPath>
<clipPath id="clip17_8_493">
<rect width="7.63636" height="7.63636" fill="white" transform="matrix(-4.37114e-08 -1 -1 4.37114e-08 64.4546 235.636)"/>
</clipPath>
<clipPath id="clip18_8_493">
<rect width="7.63636" height="7.63636" fill="white" transform="matrix(-4.37114e-08 -1 -1 4.37114e-08 49.1819 312)"/>
</clipPath>
<clipPath id="clip19_8_493">
<rect width="7.63636" height="7.63636" fill="white" transform="matrix(-4.37114e-08 -1 -1 4.37114e-08 49.1819 296.727)"/>
</clipPath>
<clipPath id="clip20_8_493">
<rect width="7.63636" height="7.63636" fill="white" transform="matrix(-4.37114e-08 -1 -1 4.37114e-08 49.1819 281.455)"/>
</clipPath>
<clipPath id="clip21_8_493">
<rect width="7.63636" height="7.63636" fill="white" transform="matrix(-4.37114e-08 -1 -1 4.37114e-08 49.1819 266.182)"/>
</clipPath>
<clipPath id="clip22_8_493">
<rect width="7.63636" height="7.63636" fill="white" transform="matrix(-4.37114e-08 -1 -1 4.37114e-08 49.1819 250.909)"/>
</clipPath>
<clipPath id="clip23_8_493">
<rect width="7.63636" height="7.63636" fill="white" transform="matrix(-4.37114e-08 -1 -1 4.37114e-08 49.1819 235.636)"/>
</clipPath>
<clipPath id="clip24_8_493">
<rect width="7.63636" height="7.63636" fill="white" transform="matrix(-4.37114e-08 -1 -1 4.37114e-08 33.9092 312)"/>
</clipPath>
<clipPath id="clip25_8_493">
<rect width="7.63636" height="7.63636" fill="white" transform="matrix(-4.37114e-08 -1 -1 4.37114e-08 33.9092 296.727)"/>
</clipPath>
<clipPath id="clip26_8_493">
<rect width="7.63636" height="7.63636" fill="white" transform="matrix(-4.37114e-08 -1 -1 4.37114e-08 33.9092 281.455)"/>
</clipPath>
<clipPath id="clip27_8_493">
<rect width="7.63636" height="7.63636" fill="white" transform="matrix(-4.37114e-08 -1 -1 4.37114e-08 33.9092 266.182)"/>
</clipPath>
<clipPath id="clip28_8_493">
<rect width="7.63636" height="7.63636" fill="white" transform="matrix(-4.37114e-08 -1 -1 4.37114e-08 33.9092 250.909)"/>
</clipPath>
<clipPath id="clip29_8_493">
<rect width="7.63636" height="7.63636" fill="white" transform="matrix(-4.37114e-08 -1 -1 4.37114e-08 33.9092 235.636)"/>
</clipPath>
<clipPath id="clip30_8_493">
<rect width="7.63636" height="7.63636" fill="white" transform="matrix(-4.37114e-08 -1 -1 4.37114e-08 18.6365 312)"/>
</clipPath>
<clipPath id="clip31_8_493">
<rect width="7.63636" height="7.63636" fill="white" transform="matrix(-4.37114e-08 -1 -1 4.37114e-08 18.6365 296.727)"/>
</clipPath>
<clipPath id="clip32_8_493">
<rect width="7.63636" height="7.63636" fill="white" transform="matrix(-4.37114e-08 -1 -1 4.37114e-08 18.6365 281.455)"/>
</clipPath>
<clipPath id="clip33_8_493">
<rect width="7.63636" height="7.63636" fill="white" transform="matrix(-4.37114e-08 -1 -1 4.37114e-08 18.6365 266.182)"/>
</clipPath>
<clipPath id="clip34_8_493">
<rect width="7.63636" height="7.63636" fill="white" transform="matrix(-4.37114e-08 -1 -1 4.37114e-08 18.6365 250.909)"/>
</clipPath>
<clipPath id="clip35_8_493">
<rect width="7.63636" height="7.63636" fill="white" transform="matrix(-4.37114e-08 -1 -1 4.37114e-08 18.6365 235.636)"/>
</clipPath>
</defs>
</svg>
